<?xml version="1.0" standalone="no"?>
<!DOCTYPE svg PUBLIC "-//W3C//DTD SVG 20010904//EN"
 "http://www.w3.org/TR/2001/REC-SVG-20010904/DTD/svg10.dtd">
<svg version="1.0" xmlns="http://www.w3.org/2000/svg"
 width="500.000000pt" height="500.000000pt" viewBox="0 0 500.000000 500.000000"
 preserveAspectRatio="xMidYMid meet">
<metadata>
Created by potrace 1.16, written by Peter Selinger 2001-2019
</metadata>
<g transform="translate(0.000000,500.000000) scale(0.100000,-0.100000)"
fill="#000000" stroke="none">
<path d="M1130 3826 c0 -13 12 -16 57 -16 74 0 136 -29 157 -74 14 -30 16
-114 16 -725 l0 -691 -455 0 -455 0 0 -60 0 -60 440 0 c258 0 440 -4 440 -9 0
-20 -87 -51 -143 -51 -44 0 -57 -3 -57 -15 0 -13 56 -15 448 -15 491 0 560 7
689 64 51 23 70 26 138 24 l80 -3 7 -98 c18 -247 103 -446 250 -582 85 -79
180 -128 304 -157 l91 -22 17 -90 c41 -217 162 -359 361 -422 101 -33 335 -48
335 -22 0 11 -17 17 -64 22 -35 3 -85 14 -111 22 -123 42 -195 187 -220 440
l-6 61 48 13 c307 83 501 342 543 728 l13 112 308 0 309 0 0 60 0 60 -314 0
-313 0 -6 73 c-14 159 -88 352 -182 469 -85 108 -220 194 -365 234 -102 29
-359 26 -463 -4 -183 -52 -326 -160 -415 -311 -14 -25 -41 -84 -59 -131 -28
-73 -32 -80 -33 -50 -1 96 -50 210 -122 282 -70 70 -248 136 -375 139 -29 1
-21 4 33 14 234 42 352 140 384 315 33 181 -52 347 -212 419 -141 63 -151 64
-645 68 -406 4 -453 3 -453 -11z m811 -36 c98 -31 143 -79 175 -185 23 -75 26
-284 6 -362 -40 -153 -147 -213 -384 -213 l-88 0 0 390 0 390 114 0 c87 0 129
-5 177 -20z m1479 -725 c182 -64 282 -274 306 -639 l7 -106 -467 0 -466 0 0
45 c0 151 45 384 96 491 32 69 112 158 166 185 99 50 254 61 358 24z m-1385
-93 c96 -44 142 -112 166 -246 13 -80 7 -298 -12 -363 l-11 -43 -264 0 -264 0
0 341 0 341 168 -4 c147 -3 173 -6 217 -26z m45 -778 c0 -3 -21 -15 -47 -27
-42 -19 -70 -22 -215 -25 l-168 -4 0 31 0 31 215 0 c118 0 215 -3 215 -6z
m1647 -126 c-11 -225 -51 -408 -113 -513 -33 -56 -114 -132 -167 -155 -69 -31
-170 -43 -251 -30 -229 35 -345 210 -385 582 -6 54 -11 131 -11 173 l0 75 467
0 466 0 -6 -132z"/>
</g>
</svg>
